HIERARCHY
ROOT hips
{
  OFFSET 0 10.6860622 2.3727825e-15
  CHANNELS 6 Xposition Yposition Zposition Yrotation Xrotation Zrotation
  JOINT leftUpperLeg
  {
    OFFSET 0.6642549969 -0.9402397400000004 0
    CHANNELS 3 Yrotation Xrotation Zrotation
    JOINT leftLowerLeg
    {
      OFFSET 0 -3.997221335632195 0
      CHANNELS 3 Yrotation Xrotation Zrotation
      JOINT leftFoot
      {
        OFFSET -0.13777839790000004 -4.6145792000000005 -0.22186036399999998
        CHANNELS 3 Yrotation Xrotation Zrotation
        JOINT leftToes
        {
          OFFSET -0.03777410834999995 -0.9130806927000008 0.85230013
          CHANNELS 3 Yrotation Xrotation Zrotation
          End Site
          {
            OFFSET -0.03777410834999995 -0.9130806927000008 0.85230013
          }
        }
      }
    }
  }
  JOINT rightUpperLeg
  {
    OFFSET -0.6642778626 -0.9402397400000004 0
    CHANNELS 3 Yrotation Xrotation Zrotation
    JOINT rightLowerLeg
    {
      OFFSET 0 -3.997221452859387 0
      CHANNELS 3 Yrotation Xrotation Zrotation
      JOINT rightFoot
      {
        OFFSET 0.1377926176 -4.6145792000000005 -0.22185782299999995
        CHANNELS 3 Yrotation Xrotation Zrotation
        JOINT rightToes
        {
          OFFSET 0.037780746850000047 -0.9130806927000008 0.85230167
          CHANNELS 3 Yrotation Xrotation Zrotation
          End Site
          {
            OFFSET 0.037780746850000047 -0.9130806927000008 0.85230167
          }
        }
      }
    }
  }
  JOINT spine
  {
    OFFSET 0 0.13988381660000015 0
    CHANNELS 3 Yrotation Xrotation Zrotation
    JOINT chest
    {
      OFFSET 0 0.6191039003973773 0
      CHANNELS 3 Yrotation Xrotation Zrotation
      JOINT upperChest
      {
        OFFSET 0 0.9855186130586943 0
        CHANNELS 3 Yrotation Xrotation Zrotation
        JOINT leftShoulder
        {
          OFFSET 0.1807663869 1.5087829790000005 0
          CHANNELS 3 Yrotation Xrotation Zrotation
          JOINT leftUpperArm
          {
            OFFSET 0.5985063006419806 0 0
            CHANNELS 3 Yrotation Xrotation Zrotation
            JOINT leftLowerArm
            {
              OFFSET 2.2993332369501065 0 0
              CHANNELS 3 Yrotation Xrotation Zrotation
              JOINT leftHand
              {
                OFFSET 2.395047042602395 0 0
                CHANNELS 3 Yrotation Xrotation Zrotation
                JOINT leftIndexProximal
                {
                  OFFSET 0.5766295810000004 0.04556643899499946 0.17265095988184
                  CHANNELS 3 Yrotation Xrotation Zrotation
                  JOINT leftIndexIntermediate
                  {
                    OFFSET 0.2957229000000008 -0.019352197700001517 -0.007932640616999987
                    CHANNELS 3 Yrotation Xrotation Zrotation
                    JOINT leftIndexDistal
                    {
                      OFFSET 0.19008243099999922 -0.012484908149998475 -0.002786250786000012
                      CHANNELS 3 Yrotation Xrotation Zrotation
                      End Site
                      {
                        OFFSET 0.19008243099999922 -0.012484908149998475 -0.002786250786000012
                      }
                    }
                  }
                }
                JOINT leftMiddleProximal
                {
                  OFFSET 0.5834975091000001 0.0524350405149987 0.02204081888183999
                  CHANNELS 3 Yrotation Xrotation Zrotation
                  JOINT leftMiddleIntermediate
                  {
                    OFFSET 0.33880573540000003 -0.019871473270000717 -0.00000971183179999946
                    CHANNELS 3 Yrotation Xrotation Zrotation
                    JOINT leftMiddleDistal
                    {
                      OFFSET 0.20676022730000088 -0.012221336379999448 0.0001471936708000235
                      CHANNELS 3 Yrotation Xrotation Zrotation
                      End Site
                      {
                        OFFSET 0.20676022730000088 -0.012221336379999448 0.0001471936708000235
                      }
                    }
                  }
                }
                JOINT leftLittleProximal
                {
                  OFFSET 0.5344154683999995 -0.012880921405001189 -0.24414037221816004
                  CHANNELS 3 Yrotation Xrotation Zrotation
                  JOINT leftLittleIntermediate
                  {
                    OFFSET 0.21758961730000093 -0.011650919939999227 0.011893592810000034
                    CHANNELS 3 Yrotation Xrotation Zrotation
                    JOINT leftLittleDistal
                    {
                      OFFSET 0.1475273964999999 -0.008152365682999818 0.006001092492999946
                      CHANNELS 3 Yrotation Xrotation Zrotation
                      End Site
                      {
                        OFFSET 0.1475273964999999 -0.008152365682999818 0.006001092492999946
                      }
                    }
                  }
                }
                JOINT leftRingProximal
                {
                  OFFSET 0.5799399463000003 0.026911854694997794 -0.12150566991816003
                  CHANNELS 3 Yrotation Xrotation Zrotation
                  JOINT leftRingIntermediate
                  {
                    OFFSET 0.26167887460000006 -0.013480186499999602 0.010996293000000053
                    CHANNELS 3 Yrotation Xrotation Zrotation
                    JOINT leftRingDistal
                    {
                      OFFSET 0.17667108799999987 -0.008990287899999228 0.0055541023999999065
                      CHANNELS 3 Yrotation Xrotation Zrotation
                      End Site
                      {
                        OFFSET 0.17667108799999987 -0.008990287899999228 0.0055541023999999065
                      }
                    }
                  }
                }
                JOINT leftThumbProximal
                {
                  OFFSET 0.11018806699999972 -0.09448718900500053 0.17047963138184
                  CHANNELS 3 Yrotation Xrotation Zrotation
                  JOINT leftThumbIntermediate
                  {
                    OFFSET 0.31062601459999983 -0.08126270900000132 0.15443142000000007
                    CHANNELS 3 Yrotation Xrotation Zrotation
                    JOINT leftThumbDistal
                    {
                      OFFSET 0.21627175790000086 -0.08833193599999878 0.018771167799999988
                      CHANNELS 3 Yrotation Xrotation Zrotation
                      End Site
                      {
                        OFFSET 0.21627175790000086 -0.08833193599999878 0.018771167799999988
                      }
                    }
                  }
                }
              }
            }
          }
        }
        JOINT neck
        {
          OFFSET 0 1.5463305265074576 0
          CHANNELS 3 Yrotation Xrotation Zrotation
          JOINT head
          {
            OFFSET 0 0.8456443600000344 0
            CHANNELS 3 Yrotation Xrotation Zrotation
            JOINT leftEye
            {
              OFFSET 0.30408573140000006 0.5104519199999995 0.1276382305
              CHANNELS 3 Yrotation Xrotation Zrotation
              End Site
              {
                OFFSET 0.30408573140000006 0.5104519199999995 0.1276382305
              }
            }
            JOINT rightEye
            {
              OFFSET -0.30409491089999996 0.5104519199999995 0.1276379445
              CHANNELS 3 Yrotation Xrotation Zrotation
              End Site
              {
                OFFSET -0.30409491089999996 0.5104519199999995 0.1276379445
              }
            }
            JOINT jaw
            {
              OFFSET -3.155239131000001e-7 -0.11984121820000082 0.60178107
              CHANNELS 3 Yrotation Xrotation Zrotation
              End Site
              {
                OFFSET -3.155239131000001e-7 -0.11984121820000082 0.60178107
              }
            }
          }
        }
        JOINT rightShoulder
        {
          OFFSET -0.1807303465 1.5087829790000005 0
          CHANNELS 3 Yrotation Xrotation Zrotation
          JOINT rightUpperArm
          {
            OFFSET -0.5985063796536958 0 0
            CHANNELS 3 Yrotation Xrotation Zrotation
            JOINT rightLowerArm
            {
              OFFSET -2.2993322059002854 0 0
              CHANNELS 3 Yrotation Xrotation Zrotation
              JOINT rightHand
              {
                OFFSET -2.395045314457259 0 0
                CHANNELS 3 Yrotation Xrotation Zrotation
                JOINT rightIndexProximal
                {
                  OFFSET -0.5764487688300002 0.0441371204405987 0.17361932004999997
                  CHANNELS 3 Yrotation Xrotation Zrotation
                  JOINT rightIndexIntermediate
                  {
                    OFFSET -0.29573011380000047 -0.01934826376999843 -0.007698921482999974
                    CHANNELS 3 Yrotation Xrotation Zrotation
                    JOINT rightIndexDistal
                    {
                      OFFSET -0.19008373999999884 -0.012503266380000655 -0.0026365778999999897
                      CHANNELS 3 Yrotation Xrotation Zrotation
                      End Site
                      {
                        OFFSET -0.19008373999999884 -0.012503266380000655 -0.0026365778999999897
                      }
                    }
                  }
                }
                JOINT rightMiddleProximal
                {
                  OFFSET -0.5834852037300005 0.05211639405060153 0.02307162440000001
                  CHANNELS 3 Yrotation Xrotation Zrotation
                  JOINT rightMiddleIntermediate
                  {
                    OFFSET -0.33880114510000003 -0.019952774050000954 0.0002455003561999819
                    CHANNELS 3 Yrotation Xrotation Zrotation
                    JOINT rightMiddleDistal
                    {
                      OFFSET -0.20675694929999955 -0.012273788999999091 0.00030209124000002766
                      CHANNELS 3 Yrotation Xrotation Zrotation
                      End Site
                      {
                        OFFSET -0.20675694929999955 -0.012273788999999091 0.00030209124000002766
                      }
                    }
                  }
                }
                JOINT rightLittleProximal
                {
                  OFFSET -0.5346811737299992 -0.011214256288399227 -0.24363941305000003
                  CHANNELS 3 Yrotation Xrotation Zrotation
                  JOINT rightLittleIntermediate
                  {
                    OFFSET -0.21757715980000092 -0.011771559690000988 0.01201554387
                    CHANNELS 3 Yrotation Xrotation Zrotation
                    JOINT rightLittleDistal
                    {
                      OFFSET -0.1475201849000004 -0.00822055339600003 0.006082065407000015
                      CHANNELS 3 Yrotation Xrotation Zrotation
                      End Site
                      {
                        OFFSET -0.1475201849000004 -0.00822055339600003 0.006082065407000015
                      }
                    }
                  }
                }
                JOINT rightRingProximal
                {
                  OFFSET -0.5800810755299999 0.027657985680600072 -0.12066365025000003
                  CHANNELS 3 Yrotation Xrotation Zrotation
                  JOINT rightRingIntermediate
                  {
                    OFFSET -0.26166445029999974 -0.013623118409999302 0.011164098990000045
                    CHANNELS 3 Yrotation Xrotation Zrotation
                    JOINT rightRingDistal
                    {
                      OFFSET -0.17666387530000027 -0.009072900100000503 0.005668185599999959
                      CHANNELS 3 Yrotation Xrotation Zrotation
                      End Site
                      {
                        OFFSET -0.17666387530000027 -0.009072900100000503 0.005668185599999959
                      }
                    }
                  }
                }
                JOINT rightThumbProximal
                {
                  OFFSET -0.10997596379000074 -0.09577489355940072 0.16989765924999997
                  CHANNELS 3 Yrotation Xrotation Zrotation
                  JOINT rightThumbIntermediate
                  {
                    OFFSET -0.31036620999999986 -0.08229339117999834 0.15440884469999996
                    CHANNELS 3 Yrotation Xrotation Zrotation
                    JOINT rightThumbDistal
                    {
                      OFFSET -0.21631306399999906 -0.08825326400000111 0.018656797720000014
                      CHANNELS 3 Yrotation Xrotation Zrotation
                      End Site
                      {
                        OFFSET -0.21631306399999906 -0.08825326400000111 0.018656797720000014
                      }
                    }
                  }
                }
              }
            }
          }
        }
      }
    }
  }
}
MOTION
Frames: 7
Frame Time: 0.03333333333333333
0 -10.07322438200052 6.440577127459367 180 -43.99996901092107 180 135.89856589430795 -74.08881354000688 -126.85657159189576 2.1885954974066695 24.823510502844254 8.945449358799912 -10.803261566867656 2.708093057359426 5.556241331336435 0 0 0 -156.3980776685863 -79.98586181729388 153.85580083138464 -3.784657757636359 36.5586951284419 -5.534538218372797 1.836581823184743 13.251165819710756 -6.358807611039197 0 0 0 -0.12165563793709112 46.23752546112983 0.177950017450297 2.070360987708854 2.511099607469658 2.2777577537421565 0 0 0 -43.9805420698624 -1.61216660965881 -20.166129174055982 1.234598471253468 4.345909373813135 -44.6521620262654 -91.11428233388816 -47.79360599036357 48.18320679404999 -11.273169194671242 7.2749300195404665 -57.868182053421286 0 0 0 0 0 0 0 0 0 0 0 0 0 0 0 0 0 0 0 0 0 0 0 0 0 0 0 0 0 0 0 0 0 0 0 0 0 0 0 0 0 0 0 0 0 0 19.52587217553456 0 -26.99553744971443 -7.001109905045202 3.588993567244746 0 0 0 0 0 0 0 0 0 43.68983535969459 -1.2284430192342803 20.469489618260262 -1.25099889331321 4.373393752643447 44.600019462930845 91.03226772274121 -47.84296455625164 -48.20594894272879 15.864566925901588 10.398968110446061 64.81988073928159 0 0 0 0 0 0 0 0 0 0 0 0 0 0 0 0 0 0 0 0 0 0 0 0 0 0 0 0 0 0 0 0 0 0 0 0 0 0 0 0 0 0 0 0 0
0 -10.07322438200052 6.440577127459367 180 -43.99996901092107 180 135.9924877214888 -74.06965319905784 -126.79373848786722 2.1885954974066695 24.823510502844254 8.945449358799912 -10.803261566867656 2.708093057359426 5.556241331336435 0 0 0 -156.34905093772346 -80.01386688770812 153.72154909655018 -3.8185162295498944 36.781866212239294 -5.552967142749681 1.836581823184743 13.251165819710756 -6.358807611039197 0 0 0 -0.12165563793709112 46.23752546112983 0.177950017450297 2.070942294971877 2.8353293417299956 2.2894556166158897 0 0 0 -43.94197037645768 -1.6931057953719844 -19.83922514688258 1.2160181933950307 4.345884114864829 -44.84130894313202 -91.14354141149703 -47.772173398681055 48.088129929513826 -11.466967976666693 7.31393014035536 -57.74530066794633 0 0 0 0 0 0 0 0 0 0 0 0 0 0 0 0 0 0 0 0 0 0 0 0 0 0 0 0 0 0 0 0 0 0 0 0 0 0 0 0 0 0 0 0 0 0 19.52587217553456 0 -26.76120835602265 -6.875626200337527 3.527160092557373 0 0 0 0 0 0 0 0 0 43.6572847576303 -1.3198348805692475 20.134910754091443 -1.232040293733024 4.372731858650142 44.79040465267032 91.06344194501241 -47.82019428055022 -48.11028237401344 15.935783841947433 10.358536958916208 64.52194023628797 0 0 0 0 0 0 0 0 0 0 0 0 0 0 0 0 0 0 0 0 0 0 0 0 0 0 0 0 0 0 0 0 0 0 0 0 0 0 0 0 0 0 0 0 0
0 -10.07322438200052 6.440577127459367 180 -43.99996901092107 180 136.1803264161604 -74.03141211624845 -126.66800275337343 2.1885954974066695 24.823510502844254 8.945449358799912 -10.803261566867656 2.708093057359426 5.556241331336435 0 0 0 -156.24945779568347 -80.06979469929652 153.45149926071144 -3.8868222795441794 37.228307111368075 -5.59049661905852 1.836581823184743 13.251165819710756 -6.358807611039197 0 0 0 -0.12165563793709112 46.23752546112983 0.177950017450297 2.0723053514650625 3.484163285570731 2.312886552300961 0 0 0 -43.86616206659391 -1.8557406308911704 -19.185128764405423 1.1788512269880957 4.345646937662686 -45.2196552831766 -91.2021197479349 -47.7293854621013 47.897977697839785 -11.854489032928639 7.393193276513944 -57.49982564728132 0 0 0 0 0 0 0 0 0 0 0 0 0 0 0 0 0 0 0 0 0 0 0 0 0 0 0 0 0 0 0 0 0 0 0 0 0 0 0 0 0 0 0 0 0 0 19.52587217553456 0 -26.29255206931078 -6.6235916258607475 3.4049402670947724 0 0 0 0 0 0 0 0 0 43.59371779259615 -1.5033012771731105 19.46540829395554 -1.1941234572031438 4.371218409833782 45.17123695752417 91.125949056997 -47.77476496646717 -47.91901203443429 16.078916675135325 10.278723704532059 63.92570208685836 0 0 0 0 0 0 0 0 0 0 0 0 0 0 0 0 0 0 0 0 0 0 0 0 0 0 0 0 0 0 0 0 0 0 0 0 0 0 0 0 0 0 0 0 0
0 -10.07322438200052 6.440577127459367 180 -43.99996901092107 180 136.27417818148524 -74.01233118467721 -126.6050385779236 2.1885954974066695 24.823510502844254 8.945449358799912 -10.803261566867656 2.708093057359426 5.556241331336435 0 0 0 -156.19885863879028 -80.09773685246651 153.31567697464732 -3.9212740715186465 37.451562817158205 -5.609600814891625 1.836581823184743 13.251165819710756 -6.358807611039197 0 0 0 -0.12165563793709112 46.23752546112983 0.177950017450297 2.073087571523763 3.8087476872047152 2.324620200120221 0 0 0 -43.82894200294701 -1.9374270644066605 -18.85795405996874 1.160264974204066 4.345437588172605 -45.40887325617157 -91.23150212811798 -47.70804527315366 47.80295062351254 -12.048203031925 7.433455694296446 -57.37723278600203 0 0 0 0 0 0 0 0 0 0 0 0 0 0 0 0 0 0 0 0 0 0 0 0 0 0 0 0 0 0 0 0 0 0 0 0 0 0 0 0 0 0 0 0 0 0 19.52587217553456 0 -26.058232765319573 -6.497052122872946 3.344560307533746 0 0 0 0 0 0 0 0 0 43.56272529202515 -1.595365873863803 19.13051557984026 -1.175165545055975 4.370367711656885 45.36168818411918 91.15723997728446 -47.75209566493792 -47.82338741043139 16.150815698858974 10.239350840471772 63.627396457363005 0 0 0 0 0 0 0 0 0 0 0 0 0 0 0 0 0 0 0 0 0 0 0 0 0 0 0 0 0 0 0 0 0 0 0 0 0 0 0 0 0 0 0 0 0
0 -10.07322438200052 6.440577127459367 180 -43.99996901092107 180 136.3679954129865 -73.99328479065723 -126.54203078834816 2.1885954974066695 24.823510502844254 8.945449358799912 -10.803261566867656 2.708093057359426 5.556241331336435 0 0 0 -156.1477345440732 -80.12565771211443 153.17933179936534 -3.9559229129673943 37.67480945585622 -5.628931731662781 1.836581823184743 13.251165819710756 -6.358807611039197 0 0 0 -0.12165563793709112 46.23752546112983 0.177950017450297 2.073936895066685 4.133331287074956 2.33636279510227 0 0 0 -43.79218661744653 -2.0193246064036585 -18.530817583170894 1.1416796593133847 4.345167446073958 -45.59809068914818 -91.26092491399768 -47.68673411035079 47.707944904474346 -12.241846887148752 7.474128237981938 -57.254769900786194 0 0 0 0 0 0 0 0 0 0 0 0 0 0 0 0 0 0 0 0 0 0 0 0 0 0 0 0 0 0 0 0 0 0 0 0 0 0 0 0 0 0 0 0 0 0 19.52587217553456 0 -25.82410680461142 -6.37026781539607 3.284716629972593 0 0 0 0 0 0 0 0 0 43.53227183355962 -1.687610010731987 18.795657926201457 -1.1562105663698028 4.369454507290162 45.55214294428363 91.18857345058404 -47.72946162019868 -47.72778964859848 16.222912580887794 10.200346339080044 63.32907695338586 0 0 0 0 0 0 0 0 0 0 0 0 0 0 0 0 0 0 0 0 0 0 0 0 0 0 0 0 0 0 0 0 0 0 0 0 0 0 0 0 0 0 0 0 0
0 -10.07322438200052 6.440577127459367 180 -43.99996901092107 180 136.5555319808839 -73.95527041557442 -126.4158646870731 2.1885954974066695 24.823510502844254 8.945449358799912 -10.803261566867656 2.708093057359426 5.556241331336435 0 0 0 -156.04390092227672 -80.18141483181647 152.90506196857717 -4.025841659469377 38.12138435470933 -5.66829549191528 1.836581823184743 13.251166696838279 -6.358808918636105 0 0 0 -0.12165563793709112 46.23752546112983 0.177950017450297 2.07583789480589 4.782791813931038 2.3598895266413873 0 0 0 -43.72002791294163 -2.1838228053409723 -17.876322243715087 1.104506429102259 4.344443071859216 -45.97657804461007 -91.31984513645027 -47.644208847083824 47.51796194056766 -12.629026561247455 7.556720608485855 -57.01017355108381 0 0 0 0 0 0 0 0 0 0 0 0 0 0 0 0 0 0 0 0 0 0 0 0 0 0 0 0 0 0 0 0 0 0 0 0 0 0 0 0 0 0 0 0 0 0 19.52587217553456 0 -25.35587068130033 -6.1156770968353005 3.166500031967249 0 0 0 0 0 0 0 0 0 43.472952587709706 -1.8727207172751594 18.12568814194228 -1.118303821367352 4.367439724655333 45.933114776300194 91.25139851737165 -47.68430417615193 -47.53665856495243 16.36777029556739 10.12341319184544 62.7321643129995 0 0 0 0 0 0 0 0 0 0 0 0 0 0 0 0 0 0 0 0 0 0 0 0 0 0 0 0 0 0 0 0 0 0 0 0 0 0 0 0 0 0 0 0 0
0 -10.07322438200052 6.440577127459367 180 -43.99996901092107 180 136.64928933887387 -73.93630224962847 -126.35274627689894 2.1885954974066695 24.823510502844254 8.945449358799912 -10.803261566867656 2.708093057359426 5.556241331336435 0 0 0 -155.99118045421935 -80.20927071099845 152.76712408452835 -4.061114456191225 38.34469816519289 -5.688331668287273 1.836581823184743 13.251166696838279 -6.358808918636105 0 0 0 -0.12165563793709112 46.23752546112983 0.177950017450297 2.0768898999289114 5.107647023015174 2.371673623822664 0 0 0 -43.68464119478087 -2.2664134084774807 -17.54898518354315 1.0859198433502146 4.343987555569864 -46.16583747962789 -91.3493797804386 -47.62299466175686 47.42300569657776 -12.822552614581415 7.598641576810564 -56.88804560972163 0 0 0 0 0 0 0 0 0 0 0 0 0 0 0 0 0 0 0 0 0 0 0 0 0 0 0 0 0 0 0 0 0 0 0 0 0 0 0 0 0 0 0 0 0 0 19.52587217553456 0 -25.121777225510638 -5.987880656966656 3.1081337236985265 0 0 0 0 0 0 0 0 0 43.4440888126577 -1.9655743777081163 17.790597850176763 -1.099354588116443 4.36633729063382 46.12361664148528 91.28287657967688 -47.66178067406073 -47.441124168122066 16.440510933282233 10.085489455499992 62.433567755354844 0 0 0 0 0 0 0 0 0 0 0 0 0 0 0 0 0 0 0 0 0 0 0 0 0 0 0 0 0 0 0 0 0 0 0 0 0 0 0 0 0 0 0 0 0
